HIERARCHY
ROOT Hips
{
	OFFSET 0.00 0.00 0.00
	CHANNELS 6 Xposition Yposition Zposition Xrotation Yrotation Zrotation
	JOINT Spine
	{
		OFFSET 0.00000 7.50895 0.00000
		CHANNELS 3 Xrotation Yrotation Zrotation
		JOINT Head
		{
			OFFSET 0.00000 13.86115 0.00000
			CHANNELS 3 Xrotation Yrotation Zrotation
			End Site
			{
				OFFSET 0.00000 4.52755 0.00000
			}
		}
		JOINT LeftShoulder
		{
			OFFSET 0.00000 8.20478 0.00000
			CHANNELS 3 Xrotation Yrotation Zrotation
			JOINT LeftArm
			{
				OFFSET 6.63596 0.00000 0.00000
				CHANNELS 3 Xrotation Yrotation Zrotation
				JOINT LeftForeArm
				{
					OFFSET 10.27422 0.00000 0.00000
					CHANNELS 3 Yrotation Zrotation Xrotation
					JOINT LeftHand
					{
						OFFSET 8.52215 0.00000 0.00000
						CHANNELS 3 Xrotation Yrotation Zrotation
						JOINT LeftHandThumb1
						{
							OFFSET 0.00000 0.00000 0.00000
							CHANNELS 3 Xrotation Zrotation Yrotation
							End Site
							{
								OFFSET 0.00000 0.00000 3.93700
							}
						}
						End Site
						{
							OFFSET 3.93700 0.00000 0.00000
						}
					}
				}
			}
		}
		JOINT RightShoulder
		{
			OFFSET 0.00000 8.20478 0.00000
			CHANNELS 3 Xrotation Yrotation Zrotation
			JOINT RightArm
			{
				OFFSET -6.63596 0.00000 0.00000
				CHANNELS 3 Xrotation Yrotation Zrotation
				JOINT RightForeArm
				{
					OFFSET -10.27422 0.00000 0.00000
					CHANNELS 3 Yrotation Zrotation Xrotation
					JOINT RightHand
					{
						OFFSET -8.52215 0.00000 0.00000
						CHANNELS 3 Xrotation Yrotation Zrotation
						JOINT RightHandThumb1
						{
							OFFSET 0.00000 0.00000 0.00000
							CHANNELS 3 Xrotation Zrotation Yrotation
							End Site
							{
								OFFSET 0.00000 0.00000 3.93700
							}
						}
						End Site
						{
							OFFSET -3.93700 0.00000 0.00000
						}
					}
				}
			}
		}
	}
	JOINT LeftUpLeg
	{
		OFFSET 3.00056 0.00000 0.00000
		CHANNELS 3 Xrotation Yrotation Zrotation
		JOINT LeftLeg
		{
			OFFSET 0.00000 -16.49085 0.00000
			CHANNELS 3 Xrotation Yrotation Zrotation
			JOINT LeftFoot
			{
				OFFSET 0.00000 -14.55658 0.00000
				CHANNELS 3 Xrotation Yrotation Zrotation
				JOINT LeftToeBase
				{
					OFFSET 0.00000 -1.25038 4.66650
					CHANNELS 3 Xrotation Yrotation Zrotation
					End Site
					{
						OFFSET 0.00000 0.00000 2.95275
					}
				}
			}
		}
	}
	JOINT RightUpLeg
	{
		OFFSET -3.00056 0.00000 0.00000
		CHANNELS 3 Xrotation Yrotation Zrotation
		JOINT RightLeg
		{
			OFFSET 0.00000 -16.49085 0.00000
			CHANNELS 3 Xrotation Yrotation Zrotation
			JOINT RightFoot
			{
				OFFSET 0.00000 -14.55658 0.00000
				CHANNELS 3 Xrotation Yrotation Zrotation
				JOINT RightToeBase
				{
					OFFSET 0.00000 -1.25038 4.66650
					CHANNELS 3 Xrotation Yrotation Zrotation
					End Site
					{
						OFFSET 0.00000 0.00000 2.95275
					}
				}
			}
		}
	}
}
MOTION
Frames: 18
Frame Time: 0.008333
 -7.0114 32.6364 -3.1023 15.4526 2.1445 -0.9980 -5.8494 3.9885 10.9007 -20.1157 -0.9605 -2.8050 15.7491 8.0423 13.9541 -47.8400 -52.6401 -99.9040 -107.9933 -0.0000 33.1299 -17.8783 23.8180 38.6171 33.1476 -0.0000 26.2537 -15.1946 -8.6942 -25.9592 -1.8723 43.6437 88.0529 116.6847 0.0000 22.1075 1.8699 2.5496 -36.2764 32.8623 0.0000 -24.3270 -24.9445 8.7829 4.5318 36.2522 0.0000 0.0000 -19.6488 28.6052 -15.5675 -4.2409 -0.0000 -0.0000 -21.7769 -10.3140 4.8183 13.7163 0.0000 0.0000 -12.7123 -2.4706 -4.7220 1.5991 0.0000 -0.0000
 -6.9967 32.6424 -3.1013 15.4639 2.1730 -0.8847 -5.8154 4.1582 10.7893 -20.2269 -1.1087 -2.9678 15.7948 8.0628 13.9292 -47.4626 -52.5881 -99.6545 -108.0714 -0.0000 33.1892 -17.6740 23.8691 38.2187 33.1476 -0.0000 26.2537 -15.1980 -8.7234 -26.0117 -1.8363 43.7637 87.9778 116.7079 0.0000 22.3686 1.7025 2.2972 -36.5586 32.8623 0.0000 -24.3270 -25.0137 8.5369 4.4081 35.5977 -0.0000 -0.0000 -19.6858 28.5919 -15.5125 -4.0379 -0.0000 0.0000 -21.8358 -10.3446 4.6680 13.7701 -0.0000 0.0000 -12.7173 -2.4388 -4.7338 1.5682 -0.0000 0.0000
 -6.9845 32.6477 -3.1024 15.4833 2.2016 -0.7846 -5.7802 4.2495 10.6914 -20.3215 -1.1547 -3.1027 15.8684 8.1568 13.8684 -47.1972 -52.5653 -99.4554 -108.1441 -0.0000 33.3356 -18.1945 24.1707 38.7545 33.1476 -0.0000 26.2537 -15.1917 -8.6578 -26.0756 -1.7752 43.7232 87.9388 116.7205 0.0000 22.2469 1.8384 2.4997 -36.3500 32.8623 0.0000 -24.3270 -25.0961 8.2444 4.3065 34.9551 -0.0000 0.0000 -19.6975 28.5172 -15.4973 -3.8654 -0.0000 0.0000 -21.9110 -10.3721 4.5336 13.8368 -0.0000 0.0000 -12.7304 -2.4268 -4.7280 1.5694 0.0000 0.0000
 -6.9710 32.6532 -3.0987 15.4779 2.2592 -0.7070 -5.7370 4.3283 10.6202 -20.3949 -1.2037 -3.2344 15.9628 8.2694 13.8213 -46.9483 -52.5373 -99.2776 -108.2032 -0.0000 33.2344 -17.9930 24.0553 38.5474 33.1476 -0.0000 26.2537 -15.2056 -8.5905 -26.1134 -1.6230 43.7428 87.7914 116.7661 0.0000 22.2552 1.8707 2.5575 -36.2022 32.8623 0.0000 -24.3270 -25.1289 7.9560 4.2118 34.3065 0.0000 -0.0000 -19.6647 28.3484 -15.5469 -4.0333 0.0000 0.0000 -21.9321 -10.4584 4.4072 13.8770 0.0000 -0.0000 -12.7539 -2.3804 -4.6948 1.5610 0.0000 0.0000
 -6.9592 32.6579 -3.0958 15.4814 2.3036 -0.6449 -5.7188 4.4418 10.5515 -20.4405 -1.2929 -3.3328 16.0612 8.3532 13.7808 -46.6851 -52.4967 -99.0763 -108.2689 -0.0000 33.1938 -17.6589 24.0681 37.9759 33.1476 -0.0000 26.2537 -15.2119 -8.5738 -26.1366 -1.5108 43.8207 87.6613 116.7929 0.0000 22.5688 1.7433 2.3803 -36.2349 32.8623 0.0000 -24.3270 -25.1853 7.6727 4.1497 33.7077 0.0000 0.0000 -19.6970 28.1118 -15.5224 -3.9067 -0.0000 0.0000 -21.9635 -10.4798 4.3090 13.9190 -0.0000 -0.0000 -12.7651 -2.3861 -4.7208 1.5849 0.0000 0.0000
 -6.9475 32.6624 -3.0934 15.4855 2.3541 -0.5985 -5.7066 4.5527 10.4960 -20.4965 -1.4021 -3.4460 16.0858 8.3917 13.7728 -46.3873 -52.4192 -98.9425 -108.3289 -0.0000 33.2012 -17.6573 24.1923 37.8389 33.1476 -0.0000 26.2537 -15.1723 -8.5999 -26.1578 -1.4479 43.8382 87.5277 116.7866 0.0000 22.5061 1.8921 2.5892 -36.1770 32.8623 0.0000 -24.3270 -25.2505 7.4002 4.1052 33.1550 0.0000 0.0000 -19.6388 27.8491 -15.6838 -4.0476 0.0000 0.0000 -21.9898 -10.5347 4.2166 13.9490 0.0000 -0.0000 -12.7937 -2.4532 -4.6398 1.6562 -0.0000 0.0000
 -6.9367 32.6654 -3.0892 15.4704 2.4072 -0.5587 -5.6796 4.6083 10.4466 -20.5007 -1.4719 -3.5337 16.1168 8.4597 13.7584 -46.1078 -52.3747 -98.8055 -108.3888 -0.0000 33.1108 -17.6859 24.0838 38.0042 33.1476 -0.0000 26.2537 -15.1605 -8.5819 -26.1765 -1.3916 43.9216 87.3758 116.7871 0.0000 22.4112 1.9655 2.7106 -35.9665 32.8623 0.0000 -24.3270 -25.2784 7.1739 4.0679 32.6159 0.0000 -0.0000 -19.5976 27.4527 -15.6211 -4.1329 0.0000 -0.0000 -21.9872 -10.5849 4.1481 13.9561 -0.0000 0.0000 -12.8144 -2.5207 -4.4883 1.7102 0.0000 0.0000
 -6.9252 32.6691 -3.0848 15.4639 2.4652 -0.5250 -5.6821 4.6879 10.4098 -20.4804 -1.5569 -3.6501 16.1787 8.5013 13.7343 -45.8532 -52.2892 -98.6802 -108.4377 -0.0000 33.1720 -17.4133 24.2093 37.4100 33.1476 -0.0000 26.2537 -15.1959 -8.5890 -26.2243 -1.3180 43.9869 87.2861 116.7665 0.0000 22.2346 2.0169 2.7831 -35.9525 32.8623 0.0000 -24.3270 -25.3176 6.9038 4.0256 32.1111 0.0000 -0.0000 -19.5484 27.0959 -15.6090 -3.9374 0.0000 -0.0000 -21.9936 -10.5913 4.0724 13.9831 -0.0000 -0.0000 -12.8057 -2.4798 -4.6238 1.6536 -0.0000 0.0000
 -6.9127 32.6723 -3.0784 15.4426 2.5301 -0.5062 -5.6782 4.7466 10.3951 -20.4698 -1.6662 -3.7614 16.2059 8.5592 13.7180 -45.5461 -52.3008 -98.4507 -108.5080 -0.0000 33.0662 -17.4016 24.3587 37.2305 33.1476 -0.0000 26.2537 -15.1997 -8.5975 -26.2674 -1.2747 44.0686 87.1928 116.7703 0.0000 22.1754 1.8569 2.5532 -36.0466 32.8623 0.0000 -24.3270 -25.3379 6.6239 3.9939 31.6539 -0.0000 0.0000 -19.3831 26.6056 -15.7609 -4.2789 0.0000 0.0000 -21.9773 -10.5808 4.0141 13.9989 0.0000 -0.0000 -12.8024 -2.5160 -4.6389 1.6052 -0.0000 -0.0000
 -6.8999 32.6757 -3.0732 15.4413 2.6072 -0.4787 -5.7074 4.8073 10.3591 -20.4336 -1.7502 -3.8525 16.2497 8.5988 13.7197 -45.2681 -52.1760 -98.3013 -108.5929 -0.0000 32.9942 -18.2894 24.0285 39.0659 33.1476 -0.0000 26.2537 -15.1854 -8.6611 -26.3237 -1.2686 44.2354 87.0197 116.7506 0.0000 22.0616 1.8113 2.4875 -36.0774 32.8623 0.0000 -24.3270 -25.3715 6.3283 3.9505 31.2095 0.0000 -0.0000 -19.2354 26.2051 -16.0610 -4.3377 -0.0000 -0.0000 -21.9758 -10.5707 3.9431 13.9975 0.0000 -0.0000 -12.8078 -2.5735 -4.6523 1.5843 0.0000 -0.0000
 -6.8875 32.6791 -3.0661 15.4206 2.6796 -0.4685 -5.7127 4.8347 10.3500 -20.4060 -1.7993 -3.9566 16.3172 8.6753 13.6822 -44.9714 -52.1214 -98.1031 -108.6541 -0.0000 33.1039 -17.7005 24.1266 37.9823 33.1476 -0.0000 26.2537 -15.1741 -8.6543 -26.3548 -1.3183 44.2657 87.1683 116.7238 0.0000 22.2390 1.7164 2.3373 -36.3073 32.8623 0.0000 -24.3270 -25.3816 6.0537 3.9192 30.8098 -0.0000 -0.0000 -19.1993 25.8087 -15.9716 -4.3163 0.0000 0.0000 -21.9415 -10.5693 3.8909 13.9968 -0.0000 0.0000 -12.7847 -2.5573 -4.7142 1.4491 0.0000 0.0000
 -6.8734 32.6816 -3.0579 15.3870 2.7590 -0.4567 -5.7148 4.8600 10.3283 -20.3533 -1.8414 -4.0274 16.3486 8.7346 13.6715 -44.7435 -52.0642 -98.0173 -108.6985 -0.0000 33.0301 -18.1100 24.0500 38.7469 33.1476 -0.0000 26.2537 -15.1638 -8.6474 -26.3835 -1.2958 44.3820 87.0924 116.6974 0.0000 22.4286 1.6298 2.2044 -36.4902 32.8623 0.0000 -24.3270 -25.3753 5.7699 3.8874 30.4449 -0.0000 0.0000 -19.2134 25.4648 -16.3316 -3.8905 -0.0000 -0.0000 -21.8828 -10.5920 3.8293 13.9550 -0.0000 0.0000 -12.8383 -2.6463 -4.5849 1.6508 -0.0000 0.0000
 -6.8585 32.6844 -3.0444 15.3126 2.8606 -0.4643 -5.6784 4.8286 10.3406 -20.3069 -1.8782 -4.1017 16.3879 8.7838 13.6423 -44.4403 -52.0029 -97.8640 -108.7676 -0.0000 32.9810 -18.0097 24.0054 38.6296 33.1476 -0.0000 26.2537 -15.1516 -8.6365 -26.4092 -1.2426 44.4237 86.8629 116.6840 0.0000 22.0378 1.8243 2.5106 -36.0219 32.8623 0.0000 -24.3270 -25.3135 5.4870 3.8663 30.0894 -0.0000 0.0000 -19.1945 25.0891 -16.4712 -3.5566 -0.0000 -0.0000 -21.7485 -10.6828 3.7847 13.8776 0.0000 0.0000 -12.8336 -2.6812 -4.4812 1.6617 -0.0000 -0.0000
 -6.8463 32.6857 -3.0310 15.2465 2.9674 -0.4612 -5.6687 4.8313 10.3082 -20.2337 -1.9763 -4.1224 16.4306 8.8010 13.6632 -44.1497 -51.9356 -97.7101 -108.8350 -0.0000 32.9189 -17.7269 24.0213 38.1409 33.1476 -0.0000 26.2537 -15.1581 -8.6487 -26.4230 -1.1602 44.4381 86.7587 116.6984 0.0000 21.9589 1.8031 2.5297 -35.4988 32.8623 0.0000 -24.3270 -25.2667 5.2537 3.8341 29.7696 -0.0000 0.0000 -19.1579 24.6508 -16.4107 -3.5868 -0.0000 -0.0000 -21.6069 -10.8153 3.7679 13.7585 -0.0000 0.0000 -12.9284 -3.0890 -3.6298 1.9694 -0.0000 0.0000
 -6.8318 32.6871 -3.0158 15.1785 3.0670 -0.4720 -5.6681 4.8452 10.3032 -20.1661 -2.0734 -4.1533 16.4503 8.8061 13.6833 -43.9030 -51.8645 -97.6628 -108.8828 -0.0000 32.9287 -17.9028 24.0232 38.4325 33.1476 -0.0000 26.2537 -15.1134 -8.6652 -26.4548 -1.1942 44.4800 86.8020 116.6755 0.0000 22.3067 1.6363 2.2584 -35.9393 32.8623 0.0000 -24.3270 -25.2098 5.0498 3.8177 29.4774 -0.0000 -0.0000 -19.1072 24.2982 -16.4544 -3.7622 -0.0000 -0.0000 -21.4519 -10.9812 3.7637 13.6264 -0.0000 0.0000 -12.9649 -3.4307 -3.0141 2.0993 0.0000 -0.0000
 -6.8182 32.6918 -3.0054 15.1531 3.1307 -0.5047 -5.7131 4.8321 10.3331 -20.0821 -2.0967 -4.1991 16.5054 8.8590 13.6335 -43.6086 -51.8457 -97.4559 -108.9571 -0.0000 32.8761 -17.8834 23.9591 38.4703 33.1476 -0.0000 26.2537 -15.1163 -8.6488 -26.4798 -1.1782 44.6048 86.7392 116.6134 0.0000 22.5771 1.5357 2.1080 -36.0859 32.8623 0.0000 -24.3270 -25.2265 4.9211 3.8343 29.2879 0.0000 0.0000 -19.0244 24.0438 -16.6743 -3.7575 -0.0000 -0.0000 -21.3763 -10.9949 3.7334 13.5870 0.0000 0.0000 -12.9008 -3.2320 -3.3773 1.9290 0.0000 -0.0000
 -6.8037 32.6959 -2.9937 15.1081 3.1814 -0.5299 -5.7352 4.8591 10.3560 -20.0251 -2.1526 -4.2438 16.5423 8.8949 13.6131 -43.3713 -51.8054 -97.3416 -108.9933 -0.0000 32.8440 -17.8175 23.9761 38.3418 33.1476 -0.0000 26.2537 -15.1320 -8.6495 -26.4986 -1.1123 44.6308 86.6346 116.6192 0.0000 22.2457 1.6525 2.3011 -35.6990 32.8623 0.0000 -24.3270 -25.1944 4.8062 3.8527 29.0438 -0.0000 0.0000 -18.9200 23.7743 -16.8128 -3.8390 0.0000 -0.0000 -21.2613 -10.9231 3.6622 13.5217 0.0000 0.0000 -12.7954 -2.6300 -4.3886 1.6080 0.0000 -0.0000
 -6.7908 32.6979 -2.9808 15.0700 3.2569 -0.5630 -5.7784 4.8801 10.3651 -19.9788 -2.2665 -4.2655 16.5861 8.9360 13.6200 -43.1694 -51.8039 -97.2425 -109.0270 -0.0000 32.8724 -17.7776 23.9335 38.3217 33.1476 -0.0000 26.2537 -15.1216 -8.6873 -26.5329 -1.1070 44.7050 86.5633 116.5865 0.0000 22.1249 1.6759 2.3421 -35.6006 32.8623 0.0000 -24.3270 -25.1717 4.6986 3.8831 28.8378 -0.0000 0.0000 -18.8528 23.4879 -16.8324 -3.9690 0.0000 -0.0000 -21.1431 -10.9320 3.6446 13.4333 0.0000 0.0000 -12.8008 -2.5445 -4.5731 1.6254 -0.0000 0.0000
